<svg width="92" height="30" viewBox="0 0 92 30" fill="none" xmlns="http://www.w3.org/2000/svg">
<path d="M8.96 29V5.48H0.96V0.359999H22.36V5.48H14.36V29H8.96ZM23.1775 9.4H28.0975V12.12H28.4175C28.6575 11.64 28.9775 11.2 29.3775 10.8C29.7775 10.4 30.2175 10.0533 30.6975 9.76C31.2042 9.46667 31.7375 9.24 32.2975 9.08C32.8842 8.92 33.4575 8.84 34.0175 8.84C34.7108 8.84 35.2975 8.90667 35.7775 9.04C36.2842 9.17333 36.7108 9.34667 37.0575 9.56L35.6575 14.32C35.3375 14.16 34.9775 14.04 34.5775 13.96C34.2042 13.8533 33.7375 13.8 33.1775 13.8C32.4575 13.8 31.8042 13.9467 31.2175 14.24C30.6308 14.5067 30.1242 14.8933 29.6975 15.4C29.2975 15.9067 28.9775 16.5067 28.7375 17.2C28.5242 17.8667 28.4175 18.6 28.4175 19.4V29H23.1775V9.4ZM56.8156 24.28C55.909 25.88 54.6823 27.1733 53.1356 28.16C51.6156 29.1467 49.749 29.64 47.5356 29.64C46.0423 29.64 44.6556 29.3867 43.3756 28.88C42.1223 28.3467 41.029 27.6133 40.0956 26.68C39.1623 25.7467 38.429 24.6533 37.8956 23.4C37.389 22.12 37.1356 20.72 37.1356 19.2C37.1356 17.7867 37.389 16.4533 37.8956 15.2C38.4023 13.92 39.109 12.8133 40.0156 11.88C40.9223 10.92 41.989 10.16 43.2156 9.6C44.469 9.04 45.8423 8.76 47.3356 8.76C48.909 8.76 50.309 9.02667 51.5356 9.56C52.7623 10.0667 53.789 10.7867 54.6156 11.72C55.4423 12.6267 56.069 13.7067 56.4956 14.96C56.9223 16.2133 57.1356 17.5733 57.1356 19.04C57.1356 19.2267 57.1356 19.3867 57.1356 19.52C57.109 19.68 57.0956 19.8267 57.0956 19.96C57.069 20.0933 57.0556 20.24 57.0556 20.4H42.2956C42.4023 21.2 42.6156 21.8933 42.9356 22.48C43.2823 23.04 43.6956 23.52 44.1756 23.92C44.6823 24.2933 45.229 24.5733 45.8156 24.76C46.4023 24.92 47.0023 25 47.6156 25C48.8156 25 49.8023 24.7333 50.5756 24.2C51.3756 23.64 52.0023 22.9467 52.4556 22.12L56.8156 24.28ZM52.0556 16.68C52.029 16.3333 51.909 15.9467 51.6956 15.52C51.509 15.0933 51.2156 14.6933 50.8156 14.32C50.4423 13.9467 49.9623 13.64 49.3756 13.4C48.8156 13.16 48.1356 13.04 47.3356 13.04C46.2156 13.04 45.229 13.36 44.3756 14C43.5223 14.64 42.9223 15.5333 42.5756 16.68H52.0556ZM60.4822 0.359999H65.7222V8.96L65.4022 11.76H65.7222C66.2022 10.9333 66.9489 10.2267 67.9622 9.64C68.9755 9.05333 70.2289 8.76 71.7222 8.76C72.9755 8.76 74.1622 9.02667 75.2822 9.56C76.4289 10.0667 77.4289 10.7867 78.2822 11.72C79.1622 12.6267 79.8555 13.72 80.3622 15C80.8689 16.28 81.1222 17.68 81.1222 19.2C81.1222 20.72 80.8689 22.12 80.3622 23.4C79.8555 24.68 79.1622 25.7867 78.2822 26.72C77.4289 27.6267 76.4289 28.3467 75.2822 28.88C74.1622 29.3867 72.9755 29.64 71.7222 29.64C70.2289 29.64 68.9755 29.3467 67.9622 28.76C66.9489 28.1733 66.2022 27.4667 65.7222 26.64H65.4022V29H60.4822V0.359999ZM70.6422 24.8C71.3355 24.8 71.9889 24.6667 72.6022 24.4C73.2422 24.1333 73.8022 23.76 74.2822 23.28C74.7622 22.8 75.1489 22.2133 75.4422 21.52C75.7355 20.8267 75.8822 20.0533 75.8822 19.2C75.8822 18.3467 75.7355 17.5733 75.4422 16.88C75.1489 16.1867 74.7622 15.6 74.2822 15.12C73.8022 14.64 73.2422 14.2667 72.6022 14C71.9889 13.7333 71.3355 13.6 70.6422 13.6C69.9489 13.6 69.2822 13.7333 68.6422 14C68.0289 14.24 67.4822 14.6 67.0022 15.08C66.5222 15.56 66.1355 16.1467 65.8422 16.84C65.5489 17.5333 65.4022 18.32 65.4022 19.2C65.4022 20.08 65.5489 20.8667 65.8422 21.56C66.1355 22.2533 66.5222 22.84 67.0022 23.32C67.4822 23.8 68.0289 24.1733 68.6422 24.44C69.2822 24.68 69.9489 24.8 70.6422 24.8ZM87.6266 29.24C86.6666 29.24 85.8399 28.9067 85.1466 28.24C84.4799 27.5467 84.1466 26.72 84.1466 25.76C84.1466 24.8 84.4799 23.9867 85.1466 23.32C85.8399 22.6533 86.6666 22.32 87.6266 22.32C88.5866 22.32 89.3999 22.6533 90.0666 23.32C90.7332 23.9867 91.0666 24.8 91.0666 25.76C91.0666 26.72 90.7332 27.5467 90.0666 28.24C89.3999 28.9067 88.5866 29.24 87.6266 29.24Z" fill="black"/>
</svg>
